<svg width="248" height="332" viewBox="0 0 248 332" fill="none" xmlns="http://www.w3.org/2000/svg">
<path d="M247.317 31.9563L235.422 17.561H88.4602L76.5649 31.9563L78.9925 81.9632L87.5499 294.321H80.9043V331.9H242.988V294.321H236.342L244.889 81.9632L247.317 31.9563Z" fill="#7A5345"/>
<path d="M209.156 300.207H242.789" stroke="white" stroke-width="1.34506" stroke-miterlimit="10"/>
<path d="M211.097 68.6572H244.73" stroke="white" stroke-width="1.34506" stroke-miterlimit="10"/>
<path d="M213.357 32.3066H247.15" stroke="white" stroke-width="1.34506" stroke-miterlimit="10"/>
<path d="M0.670197 31.9563L12.5655 17.561H159.527L171.422 31.9563L168.994 81.9632L160.437 294.321H167.083V331.9H4.99944V294.321H11.645L3.09782 81.9632L0.670197 31.9563Z" fill="#7A5345"/>
<path d="M38.8307 300.207H5.19775" stroke="white" stroke-width="1.34506" stroke-miterlimit="10"/>
<path d="M36.8903 68.6572H3.25738" stroke="white" stroke-width="1.34506" stroke-miterlimit="10"/>
<path d="M34.6295 32.3066H0.83704" stroke="white" stroke-width="1.34506" stroke-miterlimit="10"/>
<path d="M216.267 64.1294L207.736 300.207H59.2299L50.689 64.1294H216.267Z" fill="#7A5345"/>
<path d="M39.9455 32.306H210.229L198.367 17.6113H51.8082L39.9455 32.306Z" fill="#967259"/>
<path d="M232.375 0.80957H91.9697" stroke="#502719" stroke-width="1.34506" stroke-miterlimit="10"/>
<path d="M181.299 0.80957V17.6116" stroke="#502719" stroke-width="1.34506" stroke-miterlimit="10"/>
<path d="M68.8759 0.80957V17.6116" stroke="#502719" stroke-width="1.34506" stroke-miterlimit="10"/>
<path d="M218.005 0V18.4211" stroke="#502719" stroke-width="1.34506" stroke-miterlimit="10"/>
<path d="M94.7491 0V18.4211" stroke="#502719" stroke-width="1.34506" stroke-miterlimit="10"/>
<path d="M154.608 0.80957H14.2027" stroke="#502719" stroke-width="1.34506" stroke-miterlimit="10"/>
<path d="M140.617 0.80957V17.6116" stroke="#502719" stroke-width="1.34506" stroke-miterlimit="10"/>
<path d="M28.1939 0.80957V17.6116" stroke="#502719" stroke-width="1.34506" stroke-miterlimit="10"/>
<path d="M40.1343 32.437H210.229L207.811 68.9488H178.469C173.351 68.9488 168.685 71.8412 165.653 76.4141C163.315 79.9481 159.546 82.2396 155.284 82.2396H95.0693C90.8071 82.2396 87.0387 79.9481 84.701 76.4141C81.6681 71.8412 77.0129 68.9488 71.8842 68.9488H42.5425L40.1243 32.437H40.1343Z" fill="#967259"/>
<path d="M98 82H152V101H98V82Z" fill="#967259"/>
<path d="M204.49 32.3066H45.6853" stroke="#502719" stroke-width="1.34506" stroke-miterlimit="10"/>
<path d="M149.01 81.8789H100.713" stroke="#502719" stroke-width="1.34506" stroke-miterlimit="10"/>
<path d="M44.005 300.207H205.702V331.9H44.005V300.207Z" fill="#967259"/>
<path d="M192.119 318.964H58.2343" stroke="#502719" stroke-width="1.34506" stroke-miterlimit="10"/>
<path d="M192.119 323.491H58.2343" stroke="#502719" stroke-width="1.34506" stroke-miterlimit="10"/>
<path d="M209.878 284.444C209.878 291.395 204.967 297 198.877 297H51.0167C47.9864 297 45.2247 295.603 43.2244 293.32C41.239 291.037 40 287.902 40 284.427C40 267.117 43.9708 242.141 50.9272 217.455C57.2864 194.983 66.1087 172.733 76.6627 156.718C78.9019 153.327 81.2157 150.21 83.6041 147.433L83.8877 148.08H166.692V147.927C168.931 150.567 171.126 153.515 173.231 156.718C183.785 172.681 192.607 194.932 198.936 217.455C205.908 242.141 209.864 267.117 209.864 284.427L209.878 284.444Z" fill="white"/>
<path d="M172.872 126V148.097H84.5595L84.246 147.467L83.0965 145.047L73.8861 126H172.872Z" fill="white"/>
<path d="M222.985 206.312C217.477 207.181 212.357 203.126 210.983 196.976C203.34 162.578 182.934 157.28 180.426 156.752H76.6777C78.9168 153.361 81.2306 150.244 83.6191 147.467L82.5293 145.064H181.157L181.486 145.116C182.904 145.32 216.312 150.874 223 206.329L222.985 206.312Z" fill="#210000"/>
<path d="M209.878 284.444C209.878 291.395 204.967 297 198.877 297H51.0167C47.9864 297 45.2247 295.603 43.2244 293.32C41.239 291.037 40 287.902 40 284.427C40 267.117 43.9708 242.141 50.9272 217.454C50.9272 217.454 75.6178 229.227 102.518 229.227C119.162 229.227 142.748 217.233 165.468 214.78C179.456 213.28 198.921 217.454 198.921 217.454C205.893 242.141 209.849 267.117 209.849 284.427L209.878 284.444Z" fill="#502719"/>
<path d="M144.898 181.677H162.259" stroke="#502719" stroke-width="1.9763" stroke-miterlimit="10"/>
<path d="M144.898 196.397H162.259" stroke="#502719" stroke-width="1.9763" stroke-miterlimit="10"/>
<path d="M144.898 211.133H162.259" stroke="#502719" stroke-width="1.9763" stroke-miterlimit="10"/>
<path d="M144.898 225.854H162.259" stroke="white" stroke-width="1.9763" stroke-miterlimit="10"/>
<path d="M144.898 240.573H162.259" stroke="white" stroke-width="1.9763" stroke-miterlimit="10"/>
<path d="M144.898 255.293H162.259" stroke="white" stroke-width="1.9763" stroke-miterlimit="10"/>
</svg>
