<svg width="282" height="289" viewBox="0 0 282 289" fill="none" xmlns="http://www.w3.org/2000/svg">
<path d="M261.783 267.205C261.783 278.927 254.239 288.38 244.883 288.38H17.7587C13.1039 288.38 8.86177 286.024 5.78912 282.174C2.73939 278.324 0.836182 273.037 0.836182 267.176C0.836182 237.985 6.93563 195.864 17.6211 154.232C27.3894 116.334 40.9412 78.8107 57.1529 51.8029C60.5924 46.0852 64.1466 40.8273 67.8155 36.144L68.2512 37.2359H195.445V36.9773C198.885 41.4307 202.256 46.4013 205.489 51.8029C221.7 78.7245 235.252 116.248 244.975 154.232C255.683 195.864 261.76 237.985 261.76 267.176L261.783 267.205Z" fill="white"/>
<path d="M204.939 0V37.2651H69.2832L68.8017 36.202L67.036 32.1221L52.8881 0H204.939Z" fill="white"/>
<path d="M281.915 135.442C273.454 136.907 265.589 130.069 263.479 119.697C251.739 61.6871 220.394 52.7516 216.541 51.8609H57.153C60.5925 46.1432 64.1467 40.8853 67.8155 36.2021L66.1416 32.1509H217.642L218.146 32.2371C220.325 32.5819 271.643 41.9484 281.915 135.47V135.442Z" fill="#210000"/>
<path d="M161.967 93.8955H188.635" stroke="#502719" stroke-width="2.29152" stroke-miterlimit="10"/>
<path d="M161.967 118.719H188.635" stroke="#502719" stroke-width="2.29152" stroke-miterlimit="10"/>
<path d="M161.967 143.573H188.635" stroke="#502719" stroke-width="2.29152" stroke-miterlimit="10"/>
<path d="M161.967 168.396H188.635" stroke="#502719" stroke-width="2.29152" stroke-miterlimit="10"/>
<path d="M161.967 193.221H188.635" stroke="#502719" stroke-width="2.29152" stroke-miterlimit="10"/>
<path d="M161.967 218.046H188.635" stroke="#502719" stroke-width="2.29152" stroke-miterlimit="10"/>
</svg>
