<svg width="248" height="332" viewBox="0 0 248 332" fill="none" xmlns="http://www.w3.org/2000/svg">
<path d="M247.317 31.9563L235.422 17.561H88.4602L76.5649 31.9563L78.9925 81.9632L87.5499 294.321H80.9043V331.9H242.988V294.321H236.342L244.889 81.9632L247.317 31.9563Z" fill="#7A5345"/>
<path d="M209.156 300.207H242.789" stroke="white" stroke-width="1.34506" stroke-miterlimit="10"/>
<path d="M211.097 68.6572H244.73" stroke="white" stroke-width="1.34506" stroke-miterlimit="10"/>
<path d="M213.357 32.3066H247.15" stroke="white" stroke-width="1.34506" stroke-miterlimit="10"/>
<path d="M0.670197 31.9563L12.5655 17.561H159.527L171.422 31.9563L168.994 81.9632L160.437 294.321H167.083V331.9H4.99944V294.321H11.645L3.09782 81.9632L0.670197 31.9563Z" fill="#7A5345"/>
<path d="M38.8307 300.207H5.19775" stroke="white" stroke-width="1.34506" stroke-miterlimit="10"/>
<path d="M36.8903 68.6572H3.25738" stroke="white" stroke-width="1.34506" stroke-miterlimit="10"/>
<path d="M34.6295 32.3066H0.83704" stroke="white" stroke-width="1.34506" stroke-miterlimit="10"/>
<path d="M216.267 64.1294L207.736 300.207H59.2299L50.689 64.1294H216.267Z" fill="#7A5345"/>
<path d="M39.9455 32.306H210.229L198.367 17.6113H51.8082L39.9455 32.306Z" fill="#967259"/>
<path d="M232.375 0.80957H91.9697" stroke="#502719" stroke-width="1.34506" stroke-miterlimit="10"/>
<path d="M181.299 0.80957V17.6116" stroke="#502719" stroke-width="1.34506" stroke-miterlimit="10"/>
<path d="M68.8759 0.80957V17.6116" stroke="#502719" stroke-width="1.34506" stroke-miterlimit="10"/>
<path d="M218.005 0V18.4211" stroke="#502719" stroke-width="1.34506" stroke-miterlimit="10"/>
<path d="M94.7491 0V18.4211" stroke="#502719" stroke-width="1.34506" stroke-miterlimit="10"/>
<path d="M154.608 0.80957H14.2027" stroke="#502719" stroke-width="1.34506" stroke-miterlimit="10"/>
<path d="M140.617 0.80957V17.6116" stroke="#502719" stroke-width="1.34506" stroke-miterlimit="10"/>
<path d="M28.1939 0.80957V17.6116" stroke="#502719" stroke-width="1.34506" stroke-miterlimit="10"/>
<path d="M40.1343 32.437H210.229L207.811 68.9488H178.469C173.351 68.9488 168.685 71.8412 165.653 76.4141C163.315 79.9481 159.546 82.2396 155.284 82.2396H95.0693C90.8071 82.2396 87.0387 79.9481 84.701 76.4141C81.6681 71.8412 77.0129 68.9488 71.8842 68.9488H42.5425L40.1243 32.437H40.1343Z" fill="#967259"/>
<path d="M98 82H152V101H98V82Z" fill="#967259"/>
<path d="M204.49 32.3066H45.6853" stroke="#502719" stroke-width="1.34506" stroke-miterlimit="10"/>
<path d="M149.01 81.8789H100.713" stroke="#502719" stroke-width="1.34506" stroke-miterlimit="10"/>
<path d="M44.005 300.207H205.702V331.9H44.005V300.207Z" fill="#967259"/>
<path d="M192.119 318.964H58.2343" stroke="#502719" stroke-width="1.34506" stroke-miterlimit="10"/>
<path d="M192.119 323.491H58.2343" stroke="#502719" stroke-width="1.34506" stroke-miterlimit="10"/>
</svg>
